# xmcd
#
# Track frame offsets: 
#        150
#        24946
#        47415
#        69433
#        86860
#        106798
#        130474
#        147940
#        171431
#        198226
#
# Disc length: 2983 seconds
#
# Revision: 0
# Processed by: cddbd v1.5.2PL0 Copyright (c) Steve Scherf et al.
# Submitted via: ExactAudioCopy v1.0b3
#
DISCID=850ba50a
DTITLE=Tuan Dung - Mau Hoa Bi
DYEAR=2000
DGENRE=
TTITLE0=My Huyen - Mau hoa bi
TTITLE1=Hoa cau vuon trau
TTITLE2=Tuan Dung, Phi Nhung - Biet kinh ky
TTITLE3=My Huyen - Huong hoa su
TTITLE4=Chi toi
TTITLE5=Phi Nhung - Tra lai thoi gian
TTITLE6=Tuan Dung, My Huyen - Ngang trai
TTITLE7=Chi co ban be thoi
TTITLE8=My Huyen - Boi vi yeu anh
TTITLE9=Phi Nhung - Khi chung minh yeu nhau
EXTD=
EXTT0=
EXTT1=
EXTT2=
EXTT3=
EXTT4=
EXTT5=
EXTT6=
EXTT7=
EXTT8=
EXTT9=
PLAYORDER=
